PathFileType	4	(X/Y/Z)	path1_07_0-990.trc
DataRate	CameraRate	NumFrames	NumMarkers	Units	OrigDataRate	OrigDataStartFrame	OrigNumFrames
30	30	4	22	m	30	742	990
Frame#	Time	Hip			RHip			RKnee			RAnkle			RBigToe			RSmallToe			RHeel			LHip			LKnee			LAnkle			LBigToe			LSmallToe			LHeel			Neck			Head			Nose			RShoulder			RElbow			RWrist			LShoulder			LElbow			LWrist		
		X1	Y1	Z1	X2	Y2	Z2	X3	Y3	Z3	X4	Y4	Z4	X5	Y5	Z5	X6	Y6	Z6	X7	Y7	Z7	X8	Y8	Z8	X9	Y9	Z9	X10	Y10	Z10	X11	Y11	Z11	X12	Y12	Z12	X13	Y13	Z13	X14	Y14	Z14	X15	Y15	Z15	X16	Y16	Z16	X17	Y17	Z17	X18	Y18	Z18	X19	Y19	Z19	X20	Y20	Z20	X21	Y21	Z21	X22	Y22	Z22
743	24.766666666666666	1.9537659747201477	0.798356347740812	0.3510281440630604	1.9448674609648262	0.7780584945868526	0.4386243147452711	1.9074113600356775	0.4542318024524533	0.4083630983669146	1.6669589154313074	0.1684230717597575	0.4042609787531305	1.726164879831626	0.010711982546407024	0.40295812474405873	1.6707833282451983	0.02973265478846357	0.43412297118388415	1.569919356323339	0.13651991141370967	0.3779693909494257	1.9609495523864353	0.7750346517764957	0.25307962806291584	2.057136732720935	0.44753359463083076	0.2936004057220828	2.088416012704569	0.08675958675873266	0.29041866763555074	2.264994455388689	0.021308720456454384	0.3128615975797391	2.245345498825114	0.03854565457233903	0.2548726298709483	2.050004647423255	0.022660828726603934	0.2864813377976677	1.9641435972975094	1.431102489284573	0.32782239110107714	1.9787441553530374	1.655819012273733	0.3274399372690005	2.105138312476044	1.5291848864624769	0.33589699199594075	1.939722878052016	1.3262411310420763	0.521839332942278	1.948612255975028	1.0444102302452871	0.5684236881084139	2.0139117046382307	0.8299838026942891	0.5530947565746211	1.9099280786133512	1.328697713263924	0.18811859245573467	1.896379945450283	1.048475296902531	0.157787871828648	1.9395261208902346	0.8316943701956894	0.13809276703663434
744	24.8	1.9860701447809055	0.7998833170214755	0.34695041579106484	1.980275236735551	0.7794419374124034	0.4349912611465973	1.973234741696838	0.4566630508381362	0.40889112780432324	1.7176104949713158	0.1885981054879048	0.4025356715909999	1.7405969511570234	0.008061767886935679	0.40431706413029445	1.690970421815683	0.034477189473524246	0.43430231387592466	1.615440299024898	0.16549108037450883	0.37916013407612886	1.9933071732619074	0.7762859921012631	0.25049256310002943	2.0763009391517393	0.4504532558878465	0.29812380554450507	2.088510459885012	0.08540665722796993	0.2902350987881597	2.2644777855958433	0.018116208160693006	0.31075568251984154	2.24327603060768	0.03203206988077342	0.2594756950017747	2.0478331477664193	0.020979418773170205	0.2900784335890394	1.992254942634434	1.4334210258885298	0.32567419314479684	2.005887497726703	1.6568873519077136	0.323895410460378	2.1343403459334622	1.5316996291100196	0.3346386317914529	1.960736147675983	1.3262273035987082	0.5174483408166679	1.9735863645211917	1.0462347703625456	0.5600679714312566	2.0335517768089115	0.8326511153578122	0.5508998834918407	1.947068878450506	1.3310816110572505	0.18496240866925098	1.9337301002381153	1.0494168871414822	0.15482021260173603	1.9828880149884607	0.8306827358644214	0.13789903262027925
745	24.83333333333333	2.017333471353543	0.8022213702203587	0.3433097093962909	2.0143765414795047	0.7809655571181002	0.43146858389146864	2.0435846979217547	0.460749186109367	0.4067796222601613	1.776618790148198	0.20590011003170738	0.3981343021095866	1.7717768475456424	0.006660570318533183	0.40530142398875973	1.7278596007804168	0.040137706096479805	0.43516032964362683	1.6738513107624098	0.18864468028877981	0.3799596854958056	2.0242298192852677	0.7776844835306068	0.24895211369152412	2.0913378699314245	0.4528869834858349	0.3017624054877234	2.0883188620232844	0.08352826473595233	0.2908042840989904	2.264133906287237	0.016695721349989524	0.3088827820050359	2.2394868995826527	0.0243231445979329	0.2634262642292597	2.0453604655549715	0.018782961778332385	0.2935829075571949	2.0213157870417944	1.4362781302529777	0.3225171427088544	2.038340102644628	1.6619976395320506	0.32002262104978324	2.1647791006595907	1.538336641326212	0.3343839808104235	1.9803155103222816	1.3262837551792754	0.5107602859305167	1.996967119893238	1.0476634436393633	0.5501177715972616	2.052797618901065	0.8356241410978817	0.5478902377269297	1.9844958234504584	1.3339781031125646	0.1822303740214847	1.9725259438848366	1.0504296466687786	0.1524698225283587	2.0285705655331383	0.8303762341086699	0.13867311206129224
746	24.866666666666667	2.047245191860916	0.8050401778355695	0.34029705751836525	2.046662382627643	0.7827692913327668	0.4284925515385481	2.1140820107480374	0.4666171989526067	0.4030088886556863	1.8418486910757002	0.21757768459754154	0.3930497017772443	1.8245487850637574	0.00605315558712162	0.40565148856489075	1.7857961545690193	0.04513690153181866	0.43650289420810107	1.7438567103452636	0.20124872837521207	0.38132015830822114	2.0530678458737053	0.7793919652385704	0.24824838911467473	2.102466219563288	0.4545726157788455	0.30345405814668036	2.088343525145394	0.08167306130360696	0.29154939027023846	2.264186035528832	0.016229974479450984	0.30748856992584117	2.234282821842895	0.015796226424001903	0.2662636638216358	2.0430508309538435	0.01654766670283594	0.2963348111747033	2.0508951491045595	1.4392809537883768	0.3187170176109469	2.0730394613004717	1.6688448976226102	0.31677582172024876	2.195514834940308	1.545358558004293	0.3349181463273096	2.0001609252593933	1.3266013622180666	0.5040882074103294	2.018322001296944	1.048431232972432	0.5389061756195622	2.071375229157643	0.837948896767345	0.5445002398483352	2.0207515623931647	1.3371179483981035	0.17996368080718583	2.0113497158794953	1.0515874665387033	0.14978723391321844	2.0749935403958815	0.8316273594225234	0.13944159867919212
